<?xml version="1.0" encoding="UTF-8" standalone="no"?>
<svg
   xmlns:dc="http://purl.org/dc/elements/1.1/"
   xmlns:cc="http://creativecommons.org/ns#"
   xmlns:rdf="http://www.w3.org/1999/02/22-rdf-syntax-ns#"
   xmlns:svg="http://www.w3.org/2000/svg"
   xmlns="http://www.w3.org/2000/svg"
   xmlns:xlink="http://www.w3.org/1999/xlink"
   xmlns:sodipodi="http://sodipodi.sourceforge.net/DTD/sodipodi-0.dtd"
   xmlns:inkscape="http://www.inkscape.org/namespaces/inkscape"
   width="100px"
   height="100px"
   viewBox="0 0 100 100"
   version="1.1"
   id="svg18"
   sodipodi:docname="icon.svg"
   inkscape:version="0.92.2 (30a58d1, 2017-08-07)">
  <metadata
     id="metadata22">
    <rdf:RDF>
      <cc:Work
         rdf:about="">
        <dc:format>image/svg+xml</dc:format>
        <dc:type
           rdf:resource="http://purl.org/dc/dcmitype/StillImage" />
        <dc:title>eclispe-che</dc:title>
      </cc:Work>
    </rdf:RDF>
  </metadata>
  <sodipodi:namedview
     pagecolor="#ffffff"
     bordercolor="#666666"
     borderopacity="1"
     objecttolerance="10"
     gridtolerance="10"
     guidetolerance="10"
     inkscape:pageopacity="0"
     inkscape:pageshadow="2"
     inkscape:window-width="1920"
     inkscape:window-height="1016"
     id="namedview20"
     showgrid="false"
     inkscape:pagecheckerboard="true"
     inkscape:zoom="6.675088"
     inkscape:cx="23.153408"
     inkscape:cy="54.518712"
     inkscape:window-x="0"
     inkscape:window-y="27"
     inkscape:window-maximized="1"
     inkscape:current-layer="layer1" />
  <!-- Generator: Sketch 45.2 (43514) - http://www.bohemiancoding.com/sketch -->
  <title
     id="title2">eclispe-che</title>
  <desc
     id="desc4">Created with Sketch.</desc>
  <defs
     id="defs7">
    <path
       d="M50.0004412,4.04252804e-14 C22.3871247,4.04252804e-14 0,22.3848726 0,49.9995588 C0,77.6133626 22.3871247,100 50.0004412,100 C77.6137577,100 100,77.6133626 100,49.9995588 C100,22.3848726 77.6128753,3.55271368e-14 50.0004412,4.04252804e-14 Z"
       id="path-1" />
  </defs>
  <g
     inkscape:groupmode="layer"
     id="layer1"
     inkscape:label="BACKGROUND"
     style="display:inline">
    <g
       style="fill:#ffffff;fill-opacity:1;fill-rule:evenodd;stroke:none;stroke-width:1;stroke-opacity:1"
       id="Page-1">
      <g
         id="eclispe-che"
         style="fill:#ffffff;fill-opacity:1;stroke:none;stroke-opacity:1">
        <g
           id="path3023-path"
           style="fill:#ffffff;fill-opacity:1;stroke:none;stroke-opacity:1">
          <use
             xlink:href="#path-1"
             id="use9"
             style="fill:#ffffff;fill-opacity:1;fill-rule:evenodd;stroke:none;stroke-opacity:1"
             x="0"
             y="0"
             width="100%"
             height="100%" />
          <path
             d="M 50.000441,0.5 C 22.662621,0.5 0.5,22.661661 0.5,49.999559 0.5,77.337051 22.663098,99.5 50.000441,99.5 77.337613,99.5 99.5,77.337222 99.5,49.999559 99.5,22.661796 77.337514,0.5 50.000441,0.5 Z"
             id="path11"
             style="fill:#ffffff;fill-opacity:1;stroke:none;stroke-width:1;stroke-opacity:1"
             inkscape:connector-curvature="0" />
        </g>
      </g>
    </g>
    <g
       id="g5911"
       transform="matrix(0.13877875,0,0,0.13877875,14.939673,14.816518)">
      <circle
         id="circle5793"
         r="252.2"
         cy="252.2"
         cx="252.2"
         style="fill:#fd8469" />
      <path
         id="path5795"
         d="M 377.4,130.2 H 127 c -16.3,0 -29.6,13.2 -29.6,29.6 v 184.8 c 0,16.3 13.2,29.6 29.6,29.6 h 250.5 c 16.3,0 29.6,-13.2 29.6,-29.6 V 159.8 C 407,143.5 393.8,130.2 377.4,130.2 Z"
         style="fill:#ffffff"
         inkscape:connector-curvature="0" />
      <path
         id="path5797"
         d="m 97.4,183.8 v -23.5 c 0,-16.7 13.5,-30.2 30.2,-30.2 h 249.3 c 16.7,0 30.2,13.5 30.2,30.2 v 23.5 z"
         style="fill:#324a5e"
         inkscape:connector-curvature="0" />
      <g
         id="g5805">
        <circle
           id="circle5799"
           r="10.1"
           cy="158.60001"
           cx="369"
           style="fill:#ffffff" />
        <circle
           id="circle5801"
           r="10.1"
           cy="158.60001"
           cx="331"
           style="fill:#ffffff" />
        <circle
           id="circle5803"
           r="10.1"
           cy="158.60001"
           cx="293.10001"
           style="fill:#ffffff" />
      </g>
      <g
         id="g5823">
        <path
           id="path5807"
           d="m 219.8,280.5 c -0.8,-0.8 -1.2,-1.8 -1.2,-3 0,-1.2 0.4,-2.2 1.2,-3 0.8,-0.8 1.8,-1.2 3,-1.2 1.2,0 2.2,0.4 3,1.2 0.8,0.8 1.2,1.8 1.2,3 0,1.2 -0.4,2.2 -1.2,3 -0.8,0.8 -1.8,1.2 -3,1.2 -1.2,0 -2.2,-0.4 -3,-1.2 z"
           style="fill:#4cdbc4"
           inkscape:connector-curvature="0" />
        <path
           id="path5809"
           d="m 245.1,275.5 c 2.4,0 4.5,-1.2 6.4,-3.5 l 4.2,4.7 c -3.3,3.4 -6.8,5.1 -10.6,5.1 -3.8,0 -7,-1.2 -9.7,-3.6 -2.6,-2.4 -3.9,-5.6 -3.9,-9.5 0,-3.9 1.3,-7.1 4,-9.5 2.7,-2.4 5.8,-3.7 9.5,-3.7 1.8,0 3.7,0.4 5.6,1.1 1.9,0.8 3.5,1.9 4.9,3.4 l -3.7,4.8 c -0.8,-1 -1.8,-1.7 -3,-2.3 -1.2,-0.5 -2.4,-0.8 -3.5,-0.8 -1.9,0 -3.5,0.6 -4.8,1.8 -1.3,1.2 -2,2.9 -2,5.1 0,2.2 0.7,3.8 2,5 1.3,1.3 2.8,1.9 4.6,1.9 z"
           style="fill:#4cdbc4"
           inkscape:connector-curvature="0" />
        <path
           id="path5811"
           d="m 285.5,268.6 c 0,3.7 -1.3,6.8 -3.8,9.3 -2.6,2.5 -5.8,3.8 -9.6,3.8 -3.9,0 -7.1,-1.3 -9.6,-3.8 -2.6,-2.5 -3.8,-5.6 -3.8,-9.3 0,-3.7 1.3,-6.8 3.8,-9.3 2.6,-2.5 5.8,-3.8 9.6,-3.8 3.9,0 7.1,1.3 9.6,3.8 2.5,2.5 3.8,5.7 3.8,9.3 z m -19.8,0 c 0,2.1 0.6,3.8 1.8,5.1 1.2,1.3 2.7,2 4.5,2 1.8,0 3.4,-0.7 4.5,-2 1.2,-1.3 1.8,-3 1.8,-5.1 0,-2.1 -0.6,-3.8 -1.8,-5.1 -1.2,-1.3 -2.7,-2 -4.5,-2 -1.8,0 -3.4,0.7 -4.5,2 -1.2,1.4 -1.8,3.1 -1.8,5.1 z"
           style="fill:#4cdbc4"
           inkscape:connector-curvature="0" />
        <path
           id="path5813"
           d="m 314.1,267.6 v 13.7 H 307 v -13.9 c 0,-2 -0.3,-3.5 -0.9,-4.4 -0.6,-0.9 -1.6,-1.4 -3,-1.4 -1.4,0 -2.6,0.5 -3.6,1.5 -1.1,1 -1.6,2.5 -1.6,4.5 v 13.7 h -7.1 v -25.4 h 7.1 v 2.9 c 2,-2.2 4.2,-3.3 6.7,-3.3 1.6,0 3.1,0.5 4.4,1.4 1.3,0.9 2.3,2.1 3,3.5 1,-1.5 2.3,-2.7 3.9,-3.6 1.7,-0.9 3.3,-1.3 5,-1.3 3,0 5.4,0.9 7.2,2.7 1.8,1.8 2.7,4.4 2.7,7.7 v 15.5 h -7.1 v -13.9 c 0,-3.9 -1.4,-5.9 -4.3,-5.9 -1.4,0 -2.6,0.5 -3.7,1.5 -1.1,1.1 -1.6,2.6 -1.6,4.5 z"
           style="fill:#4cdbc4"
           inkscape:connector-curvature="0" />
        <path
           id="path5815"
           d="m 219.8,333 c -0.8,-0.8 -1.2,-1.8 -1.2,-3 0,-1.2 0.4,-2.2 1.2,-3 0.8,-0.8 1.8,-1.2 3,-1.2 1.2,0 2.2,0.4 3,1.2 0.8,0.8 1.2,1.8 1.2,3 0,1.2 -0.4,2.2 -1.2,3 -0.8,0.8 -1.8,1.2 -3,1.2 -1.2,0 -2.2,-0.4 -3,-1.2 z"
           style="fill:#4cdbc4"
           inkscape:connector-curvature="0" />
        <path
           id="path5817"
           d="m 240,319.6 v 14.2 h -7.1 v -25.4 h 7.1 v 2.8 c 2.1,-2.2 4.6,-3.3 7.2,-3.3 2.7,0 4.9,0.9 6.7,2.8 1.8,1.9 2.7,4.4 2.7,7.6 v 15.5 h -7.1 v -14.4 c 0,-3.9 -1.4,-5.9 -4.3,-5.9 -1.4,0 -2.7,0.5 -3.7,1.5 -0.9,1.1 -1.5,2.6 -1.5,4.6 z"
           style="fill:#4cdbc4"
           inkscape:connector-curvature="0" />
        <path
           id="path5819"
           d="m 285.2,330.1 c -2.9,2.7 -6.2,4.1 -10.1,4.1 -3.9,0 -7.1,-1.2 -9.6,-3.6 -2.5,-2.4 -3.8,-5.6 -3.8,-9.6 0,-4 1.3,-7.2 3.9,-9.6 2.6,-2.4 5.6,-3.5 9.1,-3.5 3.5,0 6.5,1.1 8.9,3.2 2.4,2.1 3.7,5 3.7,8.7 v 3.8 h -18.5 c 0.2,1.4 0.9,2.5 2.2,3.4 1.2,0.9 2.6,1.3 4.2,1.3 2.5,0 4.5,-0.8 6.1,-2.5 z M 278.4,315 c -1,-0.8 -2.2,-1.2 -3.6,-1.2 -1.4,0 -2.7,0.4 -3.9,1.3 -1.2,0.9 -1.8,2 -2,3.5 h 11.2 c -0.2,-1.6 -0.7,-2.8 -1.7,-3.6 z"
           style="fill:#4cdbc4"
           inkscape:connector-curvature="0" />
        <path
           id="path5821"
           d="m 300.6,313.4 v 11.4 c 0,1 0.3,1.7 0.8,2.3 0.5,0.6 1.1,0.8 1.8,0.8 1.3,0 2.4,-0.6 3.4,-1.8 l 2.6,5 c -2.2,2 -4.5,3 -7,3 -2.5,0 -4.5,-0.8 -6.2,-2.4 -1.7,-1.6 -2.5,-3.8 -2.5,-6.6 v -11.7 h -3 v -5.1 h 3 v -7.6 h 7.1 v 7.6 h 6.1 v 5.1 z"
           style="fill:#4cdbc4"
           inkscape:connector-curvature="0" />
      </g>
      <rect
         id="rect5825"
         height="29.700001"
         width="29.700001"
         style="fill:#ff7058"
         y="252.2"
         x="173.60001" />
      <g
         id="g5835">
        <rect
           id="rect5827"
           height="29.700001"
           width="29.700001"
           style="fill:#54c0eb"
           y="307.89999"
           x="173.60001" />
        <path
           id="path5829"
           d="m 204.8,228.5 h -7.3 l -8.7,-25.4 h 7.3 l 5,15.4 5,-15.4 h 6.9 l 5,15.4 5,-15.4 h 7.4 l -8.7,25.4 h -7.5 l -4.7,-13.9 z"
           style="fill:#54c0eb"
           inkscape:connector-curvature="0" />
        <path
           id="path5831"
           d="m 247.5,228.5 h -7.3 l -8.7,-25.4 h 7.3 l 5,15.4 5,-15.4 h 6.9 l 5,15.4 5,-15.4 h 7.4 l -8.7,25.4 H 257 l -4.7,-13.9 z"
           style="fill:#54c0eb"
           inkscape:connector-curvature="0" />
        <path
           id="path5833"
           d="m 290.1,228.5 h -7.3 l -8.7,-25.4 h 7.3 l 5,15.4 5,-15.4 h 6.9 l 5,15.4 5,-15.4 h 7.4 l -8.7,25.4 h -7.4 l -4.7,-13.9 z"
           style="fill:#54c0eb"
           inkscape:connector-curvature="0" />
      </g>
      <g
         id="g5837" />
      <g
         id="g5839" />
      <g
         id="g5841" />
      <g
         id="g5843" />
      <g
         id="g5845" />
      <g
         id="g5847" />
      <g
         id="g5849" />
      <g
         id="g5851" />
      <g
         id="g5853" />
      <g
         id="g5855" />
      <g
         id="g5857" />
      <g
         id="g5859" />
      <g
         id="g5861" />
      <g
         id="g5863" />
      <g
         id="g5865" />
    </g>
  </g>
  <g
     inkscape:groupmode="layer"
     id="layer2"
     inkscape:label="PLACE LOGO HERE" />
</svg>
